<svg xmlns="http://www.w3.org/2000/svg" xml:space="preserve" width="512" height="512" viewBox="0 0 100 100"><path fill="#f4f0e8" d="M95.967 53.786 55.162 94.592a5.257 5.257 0 0 1-7.433-7.433L79.563 55.32H7.757a5.257 5.257 0 0 1 0-10.513h71.806L47.73 12.97a5.257 5.257 0 1 1 7.433-7.433l40.805 40.807q.371.37.66.807c.081.124.14.263.21.39q.147.255.263.525.097.258.163.526c.044.152.105.3.136.457a5.3 5.3 0 0 1 0 2.058c-.031.158-.092.302-.136.455a5 5 0 0 1-.163.525q-.116.27-.263.526c-.07.129-.129.263-.21.39a5.4 5.4 0 0 1-.66.782z" data-original="#000000"/></svg>